<svg width="18" height="18" viewBox="0 0 18 18" fill="none" xmlns="http://www.w3.org/2000/svg">
<g clip-path="url(#clip0_373_1070)">
<path d="M16.7835 4.09995L13.9 1.21595C13.8431 1.15939 13.7755 1.11466 13.7012 1.08437C13.6268 1.05408 13.5473 1.03881 13.467 1.03945H13.45C13.2753 1.04553 13.1095 1.11815 12.9865 1.24245L2.542 11.6859C2.48311 11.7446 2.43995 11.8172 2.4165 11.8969L1.0275 16.5499C0.970498 16.7384 1.257 16.9754 1.419 16.9754C1.42944 16.9756 1.43985 16.9744 1.45 16.9719C1.588 16.9404 5.383 15.7999 6.1055 15.5829C6.18388 15.5595 6.25508 15.5167 6.3125 15.4584L16.7565 5.01395C16.8747 4.89602 16.9458 4.73905 16.9565 4.57245C16.9629 4.48592 16.9508 4.39902 16.9209 4.31755C16.8911 4.23607 16.8443 4.16189 16.7835 4.09995ZM5.7 14.6579C4.6195 14.9824 3.269 15.3904 2.3355 15.6689L3.34 12.3039L5.7 14.6579Z" fill="#383838"/>
</g>
<defs>
<clipPath id="clip0_373_1070">
<rect width="18" height="18" fill="white"/>
</clipPath>
</defs>
</svg>
