<svg width="60" height="60" viewBox="0 0 60 60" fill="none" xmlns="http://www.w3.org/2000/svg">
<path d="M34.3 56.752H25.9731C24.2068 56.7498 22.7749 55.3223 22.7686 53.5559V48.8173C22.7686 48.6149 22.8666 48.4253 23.0285 48.3038C23.1904 48.1845 23.4014 48.1483 23.5953 48.2079C27.8609 49.4991 32.412 49.4991 36.6775 48.2079C36.8714 48.1483 37.0823 48.1845 37.2442 48.3038C37.4062 48.4253 37.5042 48.6149 37.5021 48.8173V53.5559C37.4978 55.3223 36.0664 56.7499 34.3 56.752ZM24.0471 49.6654V53.5561C24.0535 54.615 24.9121 55.4715 25.9732 55.4736H34.3023C35.3612 55.4715 36.2199 54.615 36.2263 53.5561L36.2242 49.6654C32.2334 50.7159 28.0398 50.7159 24.0471 49.6654Z" fill="black"/>
<path d="M30.1365 50.4542C24.143 50.4542 18.3754 48.1723 14.003 44.0751C9.63069 39.978 6.98032 34.3699 6.5925 28.3889C6.5712 28.0353 6.83753 27.7306 7.19125 27.7093C7.54494 27.688 7.84961 27.9543 7.87094 28.308C8.37165 35.9509 12.7694 42.7964 19.5088 46.4318C26.25 50.0689 34.3871 49.9815 41.0477 46.2017C47.7082 42.4219 51.9568 35.4803 52.2933 27.8286C52.6278 20.1775 49.0057 12.8924 42.7009 8.54407C36.3982 4.1932 28.2998 3.39422 21.2662 6.42405C14.2326 9.45389 9.25367 15.8888 8.08367 23.4586C8.06236 23.6269 7.97074 23.7825 7.83438 23.8847C7.69588 23.9891 7.5233 24.0318 7.35284 24.0062C7.18452 23.9806 7.03111 23.8869 6.93097 23.7484C6.83083 23.6077 6.79034 23.433 6.82018 23.2647C7.68096 17.6994 10.5062 12.624 14.7827 8.95743C19.0568 5.2905 24.5027 3.27489 30.1362 3.27271C37.7322 3.2791 44.8635 6.93963 49.2909 13.1122C53.7206 19.2845 54.9096 27.2111 52.4827 34.4105C50.0559 41.6078 44.3118 47.1987 37.0501 49.4318C34.8086 50.1115 32.4777 50.4567 30.136 50.4545L30.1365 50.4542Z" fill="black"/>
<path d="M7.18487 26.974H7.17209C7.00163 26.9698 6.84183 26.8995 6.72465 26.778C6.60533 26.6566 6.54141 26.4925 6.54567 26.322C6.55206 25.9939 6.56698 25.6615 6.58829 25.3334C6.61172 24.9797 6.91641 24.7134 7.2701 24.7368C7.6238 24.7602 7.89012 25.0649 7.86672 25.4186C7.84541 25.7254 7.83263 26.0365 7.82624 26.3476C7.81985 26.697 7.53431 26.9762 7.18487 26.974Z" fill="black"/>
<path d="M30.1365 46.2438C19.4467 46.2438 10.7473 37.5503 10.7473 26.8632C10.7473 16.1778 19.4467 7.48267 30.1365 7.48267C40.8263 7.48267 49.5258 16.1761 49.5258 26.8632C49.5258 37.5503 40.8263 46.2438 30.1365 46.2438ZM30.1365 8.76067C20.152 8.76067 12.0258 16.883 12.0258 26.8632C12.0258 36.8434 20.1482 44.9658 30.1365 44.9658C40.1249 44.9658 48.2473 36.8434 48.2473 26.8632C48.2473 16.883 40.1211 8.76067 30.1365 8.76067Z" fill="black"/>
<path d="M30.1366 40.2864C28.9519 40.2864 27.8141 39.8241 26.9682 38.9952C22.9839 35.1302 18.2322 29.6243 18.2322 25.3463C18.2727 21.1233 20.5483 17.2349 24.2153 15.1338C27.8801 13.0329 32.3846 13.0329 36.0511 15.1338C39.7159 17.2346 41.9939 21.1229 42.0342 25.3463C42.0342 29.6247 37.285 35.1307 33.2982 38.9952H33.2961C32.4523 39.8219 31.3191 40.2843 30.1366 40.2864ZM30.1366 14.7269C27.3198 14.729 24.6204 15.8498 22.63 17.8398C20.6379 19.832 19.5171 22.5316 19.515 25.3464C19.515 29.3797 24.7437 35.0538 27.8588 38.0751V38.0772C29.1244 39.3173 31.1485 39.3173 32.4142 38.0772C35.5293 35.0559 40.758 29.38 40.758 25.3485L40.7602 25.3464C40.7559 22.5317 39.6352 19.8324 37.643 17.8398C35.653 15.8498 32.9535 14.729 30.1366 14.7269Z" fill="black"/>
<path d="M30.1365 32.829C27.111 32.829 24.3814 31.0051 23.2245 28.2097C22.0654 25.4142 22.7068 22.1971 24.846 20.0557C26.9852 17.9165 30.2047 17.2773 33 18.4342C35.7955 19.5933 37.6194 22.3206 37.6194 25.3462C37.613 29.4776 34.266 32.8247 30.1365 32.829ZM30.1365 19.1458C27.6266 19.1458 25.3659 20.6564 24.4049 22.9746C23.444 25.2928 23.9766 27.9625 25.7493 29.7355C27.5242 31.5103 30.1939 32.0409 32.5119 31.0799C34.8279 30.119 36.3407 27.8584 36.3407 25.3483C36.3364 21.9243 33.5605 19.1501 30.1365 19.1458Z" fill="black"/>
</svg>
